<svg width="162" height="72" viewBox="0 0 162 72" fill="none" xmlns="http://www.w3.org/2000/svg">
<g clip-path="url(#clip0_23_440)">
<g opacity="0.9">
<rect y="8" width="5" height="54" rx="2.5" fill="#2D2D2D" style="mix-blend-mode:color-dodge"/>
</g>
<g clip-path="url(#clip1_23_440)">
<g clip-path="url(#clip2_23_440)">
<g filter="url(#filter0_b_23_440)">
<path d="M11.2891 30.6582V34.8222H15.5781V35.7832H11.2891V40.9004H10.2812V29.6972H16.5859V30.6582H11.2891ZM17.7875 40.9004V29.6972H18.7484V40.9004H17.7875ZM25.9422 38.705C25.9422 39.028 25.8797 39.3327 25.7547 39.6191C25.6349 39.9056 25.4682 40.1556 25.2547 40.3691C25.0411 40.5827 24.7911 40.7519 24.5047 40.8769C24.2182 40.9967 23.9135 41.0566 23.5906 41.0566H22.95C22.6271 41.0566 22.3224 40.9967 22.0359 40.8769C21.7495 40.7519 21.4995 40.5827 21.2859 40.3691C21.0724 40.1556 20.9031 39.9056 20.7781 39.6191C20.6583 39.3327 20.5984 39.028 20.5984 38.705V35.0957C20.5984 34.7728 20.6583 34.4681 20.7781 34.1816C20.9031 33.8952 21.0724 33.6452 21.2859 33.4316C21.4995 33.2181 21.7495 33.0514 22.0359 32.9316C22.3224 32.8066 22.6271 32.7441 22.95 32.7441H23.5906C23.9135 32.7441 24.2182 32.8066 24.5047 32.9316C24.7911 33.0514 25.0411 33.2181 25.2547 33.4316C25.4682 33.6452 25.6349 33.8952 25.7547 34.1816C25.8797 34.4681 25.9422 34.7728 25.9422 35.0957V36.9785H21.5594V38.7597C21.5594 38.9524 21.5958 39.1347 21.6687 39.3066C21.7417 39.4733 21.8406 39.6191 21.9656 39.7441C22.0906 39.8691 22.2365 39.9681 22.4031 40.041C22.575 40.1139 22.7573 40.1504 22.95 40.1504H23.5906C23.7833 40.1504 23.963 40.1139 24.1297 40.041C24.3016 39.9681 24.45 39.8691 24.575 39.7441C24.7 39.6191 24.799 39.4733 24.8719 39.3066C24.9448 39.1347 24.9812 38.9524 24.9812 38.7597V38.2285L25.9422 38.3847V38.705ZM24.9812 35.041C24.9812 34.8483 24.9448 34.6686 24.8719 34.5019C24.799 34.33 24.7 34.1816 24.575 34.0566C24.45 33.9316 24.3016 33.8327 24.1297 33.7597C23.963 33.6868 23.7833 33.6504 23.5906 33.6504H22.95C22.7573 33.6504 22.575 33.6868 22.4031 33.7597C22.2365 33.8327 22.0906 33.9316 21.9656 34.0566C21.8406 34.1816 21.7417 34.33 21.6687 34.5019C21.5958 34.6686 21.5594 34.8483 21.5594 35.041V36.2285H24.9812V35.041ZM31.6047 40.9004L29.8937 37.83L28.1828 40.9004H27.1437L29.3859 36.9004L27.1437 32.9004H28.1828L29.8937 35.9707L31.6047 32.9004H32.6437L30.4094 36.9004L32.6437 40.9004H31.6047ZM39.1891 38.705C39.1891 39.028 39.1266 39.3327 39.0016 39.6191C38.8818 39.9056 38.7151 40.1556 38.5016 40.3691C38.288 40.5827 38.038 40.7519 37.7516 40.8769C37.4651 40.9967 37.1604 41.0566 36.8375 41.0566H36.1969C35.874 41.0566 35.5693 40.9967 35.2828 40.8769C34.9964 40.7519 34.7464 40.5827 34.5328 40.3691C34.3193 40.1556 34.15 39.9056 34.025 39.6191C33.9052 39.3327 33.8453 39.028 33.8453 38.705V35.0957C33.8453 34.7728 33.9052 34.4681 34.025 34.1816C34.15 33.8952 34.3193 33.6452 34.5328 33.4316C34.7464 33.2181 34.9964 33.0514 35.2828 32.9316C35.5693 32.8066 35.874 32.7441 36.1969 32.7441H36.8375C37.1604 32.7441 37.4651 32.8066 37.7516 32.9316C38.038 33.0514 38.288 33.2181 38.5016 33.4316C38.7151 33.6452 38.8818 33.8952 39.0016 34.1816C39.1266 34.4681 39.1891 34.7728 39.1891 35.0957V38.705ZM38.2281 35.041C38.2281 34.8483 38.1917 34.6686 38.1187 34.5019C38.0458 34.33 37.9469 34.1816 37.8219 34.0566C37.6969 33.9316 37.5484 33.8327 37.3766 33.7597C37.2099 33.6868 37.0302 33.6504 36.8375 33.6504H36.1969C36.0042 33.6504 35.8219 33.6868 35.65 33.7597C35.4833 33.8327 35.3375 33.9316 35.2125 34.0566C35.0875 34.1816 34.9885 34.33 34.9156 34.5019C34.8427 34.6686 34.8062 34.8483 34.8062 35.041V38.7597C34.8062 38.9524 34.8427 39.1347 34.9156 39.3066C34.9885 39.4733 35.0875 39.6191 35.2125 39.7441C35.3375 39.8691 35.4833 39.9681 35.65 40.041C35.8219 40.1139 36.0042 40.1504 36.1969 40.1504H36.8375C37.0302 40.1504 37.2099 40.1139 37.3766 40.041C37.5484 39.9681 37.6969 39.8691 37.8219 39.7441C37.9469 39.6191 38.0458 39.4733 38.1187 39.3066C38.1917 39.1347 38.2281 38.9524 38.2281 38.7597V35.041ZM37.5875 30.5957C37.8062 30.5957 37.9729 30.5123 38.0875 30.3457C38.2021 30.179 38.2594 29.9629 38.2594 29.6972H38.9937C38.9937 29.9316 38.9625 30.1504 38.9 30.3535C38.8427 30.5566 38.7542 30.7337 38.6344 30.8847C38.5198 31.0358 38.3714 31.1556 38.1891 31.2441C38.012 31.3327 37.8062 31.3769 37.5719 31.3769C37.3219 31.3769 37.1005 31.33 36.9078 31.2363C36.7203 31.1425 36.5432 31.041 36.3766 30.9316C36.2151 30.8222 36.0589 30.7207 35.9078 30.6269C35.762 30.5332 35.6083 30.4863 35.4469 30.4863C35.2281 30.4863 35.0641 30.5696 34.9547 30.7363C34.8453 30.8978 34.7906 31.1061 34.7906 31.3613H34.0562C34.0562 31.1321 34.0849 30.916 34.1422 30.7129C34.1995 30.5097 34.2854 30.3327 34.4 30.1816C34.5198 30.0306 34.6682 29.9134 34.8453 29.83C35.0276 29.7415 35.2385 29.6972 35.4781 29.6972C35.7125 29.6972 35.9182 29.7441 36.0953 29.8379C36.2776 29.9316 36.4469 30.0358 36.6031 30.1504C36.7646 30.2597 36.9234 30.3613 37.0797 30.455C37.2359 30.5488 37.4052 30.5957 37.5875 30.5957ZM46.0547 38.705C46.0547 39.028 45.9922 39.3327 45.8672 39.6191C45.7474 39.9056 45.5807 40.1556 45.3672 40.3691C45.1536 40.5827 44.9036 40.7519 44.6172 40.8769C44.3307 40.9967 44.026 41.0566 43.7031 41.0566H43.0625C42.7396 41.0566 42.4349 40.9967 42.1484 40.8769C41.862 40.7519 41.612 40.5827 41.3984 40.3691C41.1849 40.1556 41.0156 39.9056 40.8906 39.6191C40.7708 39.3327 40.7109 39.028 40.7109 38.705V35.0957C40.7109 34.7728 40.7708 34.4681 40.8906 34.1816C41.0156 33.8952 41.1849 33.6452 41.3984 33.4316C41.612 33.2181 41.862 33.0514 42.1484 32.9316C42.4349 32.8066 42.7396 32.7441 43.0625 32.7441H43.7031C44.026 32.7441 44.3307 32.8066 44.6172 32.9316C44.9036 33.0514 45.1536 33.2181 45.3672 33.4316C45.5807 33.6452 45.7474 33.8952 45.8672 34.1816C45.9922 34.4681 46.0547 34.7728 46.0547 35.0957V36.9785H41.6719V38.7597C41.6719 38.9524 41.7083 39.1347 41.7812 39.3066C41.8542 39.4733 41.9531 39.6191 42.0781 39.7441C42.2031 39.8691 42.349 39.9681 42.5156 40.041C42.6875 40.1139 42.8698 40.1504 43.0625 40.1504H43.7031C43.8958 40.1504 44.0755 40.1139 44.2422 40.041C44.4141 39.9681 44.5625 39.8691 44.6875 39.7441C44.8125 39.6191 44.9115 39.4733 44.9844 39.3066C45.0573 39.1347 45.0938 38.9524 45.0938 38.7597V38.2285L46.0547 38.3847V38.705ZM45.0938 35.041C45.0938 34.8483 45.0573 34.6686 44.9844 34.5019C44.9115 34.33 44.8125 34.1816 44.6875 34.0566C44.5625 33.9316 44.4141 33.8327 44.2422 33.7597C44.0755 33.6868 43.8958 33.6504 43.7031 33.6504H43.0625C42.8698 33.6504 42.6875 33.6868 42.5156 33.7597C42.349 33.8327 42.2031 33.9316 42.0781 34.0566C41.9531 34.1816 41.8542 34.33 41.7812 34.5019C41.7083 34.6686 41.6719 34.8483 41.6719 35.041V36.2285H45.0938V35.041ZM53.0766 38.8691C53.0766 39.192 53.0115 39.4889 52.8812 39.7597C52.751 40.0254 52.574 40.2545 52.35 40.4472C52.126 40.6399 51.8656 40.791 51.5687 40.9004C51.2771 41.0045 50.9698 41.0566 50.6469 41.0566H50.0062C49.6833 41.0566 49.3734 40.9967 49.0766 40.8769C48.7849 40.7519 48.5271 40.5827 48.3031 40.3691C48.0844 40.1556 47.9073 39.9056 47.7719 39.6191C47.6417 39.3327 47.5766 39.028 47.5766 38.705V38.3847L48.5375 38.2285V38.7597C48.5375 38.9524 48.5766 39.1347 48.6547 39.3066C48.738 39.4733 48.8474 39.6191 48.9828 39.7441C49.1182 39.8691 49.2745 39.9681 49.4516 40.041C49.6286 40.1139 49.8135 40.1504 50.0062 40.1504H50.6469C50.8396 40.1504 51.0245 40.1217 51.2016 40.0644C51.3786 40.0071 51.5349 39.9264 51.6703 39.8222C51.8109 39.7129 51.9203 39.5827 51.9984 39.4316C52.0818 39.2806 52.1234 39.1087 52.1234 38.916C52.1234 38.6295 52.0609 38.3952 51.9359 38.2129C51.8109 38.0306 51.6443 37.8795 51.4359 37.7597C51.2328 37.6347 50.9984 37.5332 50.7328 37.455C50.4724 37.3717 50.2042 37.291 49.9281 37.2129C49.6521 37.1295 49.3812 37.0358 49.1156 36.9316C48.8552 36.8274 48.6208 36.692 48.4125 36.5254C48.2094 36.3535 48.0453 36.1399 47.9203 35.8847C47.7953 35.6295 47.7328 35.3118 47.7328 34.9316C47.7328 34.6087 47.7953 34.3144 47.9203 34.0488C48.0453 33.778 48.2146 33.5462 48.4281 33.3535C48.6417 33.1608 48.8891 33.0123 49.1703 32.9082C49.4568 32.7988 49.7615 32.7441 50.0844 32.7441H50.6469C50.9698 32.7441 51.2745 32.8066 51.5609 32.9316C51.8474 33.0514 52.0974 33.2181 52.3109 33.4316C52.5245 33.6452 52.6911 33.8952 52.8109 34.1816C52.9359 34.4681 52.9984 34.7728 52.9984 35.0957V35.1269L52.0375 35.2832V35.041C52.0375 34.8483 52.001 34.6686 51.9281 34.5019C51.8552 34.33 51.7562 34.1816 51.6312 34.0566C51.5062 33.9316 51.3578 33.8327 51.1859 33.7597C51.0193 33.6868 50.8396 33.6504 50.6469 33.6504H50.0844C49.8917 33.6504 49.7094 33.679 49.5375 33.7363C49.3708 33.7936 49.225 33.8769 49.1 33.9863C48.975 34.0905 48.876 34.2181 48.8031 34.3691C48.7302 34.5202 48.6937 34.692 48.6937 34.8847C48.6937 35.1608 48.7562 35.3873 48.8812 35.5644C49.0062 35.7363 49.1703 35.8821 49.3734 36.0019C49.5818 36.1217 49.8161 36.2233 50.0766 36.3066C50.3422 36.3847 50.6104 36.4681 50.8812 36.5566C51.1573 36.6399 51.4255 36.7363 51.6859 36.8457C51.9516 36.955 52.1859 37.0957 52.3891 37.2675C52.5974 37.4394 52.7641 37.6556 52.8891 37.916C53.0141 38.1712 53.0766 38.4889 53.0766 38.8691ZM62.8312 40.9004L62.3 40.0879C62.0812 40.3847 61.8078 40.6217 61.4797 40.7988C61.1516 40.9707 60.7922 41.0566 60.4016 41.0566H60.1594C59.8365 41.0566 59.5318 40.9967 59.2453 40.8769C58.9589 40.7519 58.7089 40.5827 58.4953 40.3691C58.2818 40.1556 58.1125 39.9056 57.9875 39.6191C57.8677 39.3327 57.8078 39.028 57.8078 38.705V35.0957C57.8078 34.7728 57.8677 34.4681 57.9875 34.1816C58.1125 33.8952 58.2818 33.6452 58.4953 33.4316C58.7089 33.2181 58.9589 33.0514 59.2453 32.9316C59.5318 32.8066 59.8365 32.7441 60.1594 32.7441H60.4016C60.7609 32.7441 61.0943 32.817 61.4016 32.9629C61.7089 33.1087 61.9719 33.3118 62.1906 33.5722V29.6972H63.1516V40.9004H62.8312ZM62.1906 35.041C62.1906 34.8483 62.1542 34.6686 62.0812 34.5019C62.0083 34.33 61.9094 34.1816 61.7844 34.0566C61.6594 33.9316 61.5109 33.8327 61.3391 33.7597C61.1724 33.6868 60.9927 33.6504 60.8 33.6504H60.1594C59.9667 33.6504 59.7844 33.6868 59.6125 33.7597C59.4458 33.8327 59.3 33.9316 59.175 34.0566C59.05 34.1816 58.951 34.33 58.8781 34.5019C58.8052 34.6686 58.7687 34.8483 58.7687 35.041V38.7597C58.7687 38.9524 58.8052 39.1347 58.8781 39.3066C58.951 39.4733 59.05 39.6191 59.175 39.7441C59.3 39.8691 59.4458 39.9681 59.6125 40.041C59.7844 40.1139 59.9667 40.1504 60.1594 40.1504H60.8C60.9927 40.1504 61.1724 40.1139 61.3391 40.041C61.5109 39.9681 61.6594 39.8691 61.7844 39.7441C61.9094 39.6191 62.0083 39.4733 62.0812 39.3066C62.1542 39.1347 62.1906 38.9524 62.1906 38.7597V35.041ZM70.0172 38.705C70.0172 39.028 69.9547 39.3327 69.8297 39.6191C69.7099 39.9056 69.5432 40.1556 69.3297 40.3691C69.1161 40.5827 68.8661 40.7519 68.5797 40.8769C68.2932 40.9967 67.9885 41.0566 67.6656 41.0566H67.025C66.7021 41.0566 66.3974 40.9967 66.1109 40.8769C65.8245 40.7519 65.5745 40.5827 65.3609 40.3691C65.1474 40.1556 64.9781 39.9056 64.8531 39.6191C64.7333 39.3327 64.6734 39.028 64.6734 38.705V35.0957C64.6734 34.7728 64.7333 34.4681 64.8531 34.1816C64.9781 33.8952 65.1474 33.6452 65.3609 33.4316C65.5745 33.2181 65.8245 33.0514 66.1109 32.9316C66.3974 32.8066 66.7021 32.7441 67.025 32.7441H67.6656C67.9885 32.7441 68.2932 32.8066 68.5797 32.9316C68.8661 33.0514 69.1161 33.2181 69.3297 33.4316C69.5432 33.6452 69.7099 33.8952 69.8297 34.1816C69.9547 34.4681 70.0172 34.7728 70.0172 35.0957V36.9785H65.6344V38.7597C65.6344 38.9524 65.6708 39.1347 65.7438 39.3066C65.8167 39.4733 65.9156 39.6191 66.0406 39.7441C66.1656 39.8691 66.3115 39.9681 66.4781 40.041C66.65 40.1139 66.8323 40.1504 67.025 40.1504H67.6656C67.8583 40.1504 68.038 40.1139 68.2047 40.041C68.3766 39.9681 68.525 39.8691 68.65 39.7441C68.775 39.6191 68.874 39.4733 68.9469 39.3066C69.0198 39.1347 69.0563 38.9524 69.0563 38.7597V38.2285L70.0172 38.3847V38.705ZM69.0563 35.041C69.0563 34.8483 69.0198 34.6686 68.9469 34.5019C68.874 34.33 68.775 34.1816 68.65 34.0566C68.525 33.9316 68.3766 33.8327 68.2047 33.7597C68.038 33.6868 67.8583 33.6504 67.6656 33.6504H67.025C66.8323 33.6504 66.65 33.6868 66.4781 33.7597C66.3115 33.8327 66.1656 33.9316 66.0406 34.0566C65.9156 34.1816 65.8167 34.33 65.7438 34.5019C65.6708 34.6686 65.6344 34.8483 65.6344 35.041V36.2285H69.0563V35.041ZM80.1703 38.705C80.1703 39.028 80.1078 39.3327 79.9828 39.6191C79.863 39.9056 79.6964 40.1556 79.4828 40.3691C79.2693 40.5827 79.0193 40.7519 78.7328 40.8769C78.4464 40.9967 78.1417 41.0566 77.8187 41.0566H77.5766C77.2172 41.0566 76.8839 40.9837 76.5766 40.8379C76.2693 40.692 76.0062 40.4889 75.7875 40.2285V44.1035H74.8266V32.9004H75.1469L75.6703 33.7129C75.8891 33.416 76.1625 33.1816 76.4906 33.0097C76.824 32.8327 77.1859 32.7441 77.5766 32.7441H77.8187C78.1417 32.7441 78.4464 32.8066 78.7328 32.9316C79.0193 33.0514 79.2693 33.2181 79.4828 33.4316C79.6964 33.6452 79.863 33.8952 79.9828 34.1816C80.1078 34.4681 80.1703 34.7728 80.1703 35.0957V38.705ZM79.2094 35.041C79.2094 34.8483 79.1729 34.6686 79.1 34.5019C79.0271 34.33 78.9281 34.1816 78.8031 34.0566C78.6781 33.9316 78.5297 33.8327 78.3578 33.7597C78.1911 33.6868 78.0115 33.6504 77.8187 33.6504H77.1781C76.9854 33.6504 76.8031 33.6868 76.6312 33.7597C76.4646 33.8327 76.3187 33.9316 76.1937 34.0566C76.0687 34.1816 75.9698 34.33 75.8969 34.5019C75.824 34.6686 75.7875 34.8483 75.7875 35.041V38.7597C75.7875 38.9524 75.824 39.1347 75.8969 39.3066C75.9698 39.4733 76.0687 39.6191 76.1937 39.7441C76.3187 39.8691 76.4646 39.9681 76.6312 40.041C76.8031 40.1139 76.9854 40.1504 77.1781 40.1504H77.8187C78.0115 40.1504 78.1911 40.1139 78.3578 40.041C78.5297 39.9681 78.6781 39.8691 78.8031 39.7441C78.9281 39.6191 79.0271 39.4733 79.1 39.3066C79.1729 39.1347 79.2094 38.9524 79.2094 38.7597V35.041ZM86.7156 40.9004L86.1844 40.1035C85.9656 40.3899 85.6922 40.6217 85.3641 40.7988C85.0359 40.9707 84.6766 41.0566 84.2859 41.0566H84.0437C83.7208 41.0566 83.4161 40.9967 83.1297 40.8769C82.8432 40.7519 82.5932 40.5827 82.3797 40.3691C82.1661 40.1556 81.9969 39.9056 81.8719 39.6191C81.7521 39.3327 81.6922 39.028 81.6922 38.705V38.6269C81.6922 38.304 81.7521 37.9993 81.8719 37.7129C81.9969 37.4264 82.1661 37.1764 82.3797 36.9629C82.5932 36.7493 82.8432 36.5827 83.1297 36.4629C83.4161 36.3379 83.7208 36.2754 84.0437 36.2754H86.075V35.041C86.075 34.8483 86.0385 34.6686 85.9656 34.5019C85.8927 34.33 85.7937 34.1816 85.6687 34.0566C85.5437 33.9316 85.3953 33.8327 85.2234 33.7597C85.0568 33.6868 84.8771 33.6504 84.6844 33.6504H84.1219C83.9292 33.6504 83.7469 33.6868 83.575 33.7597C83.4083 33.8327 83.2625 33.9316 83.1375 34.0566C83.0125 34.1816 82.9135 34.33 82.8406 34.5019C82.7677 34.6686 82.7312 34.8483 82.7312 35.041V35.33L81.7703 35.1738V35.0957C81.7703 34.7728 81.8302 34.4681 81.95 34.1816C82.075 33.8952 82.2443 33.6452 82.4578 33.4316C82.6714 33.2181 82.9214 33.0514 83.2078 32.9316C83.4943 32.8066 83.799 32.7441 84.1219 32.7441H84.6844C85.0073 32.7441 85.312 32.8066 85.5984 32.9316C85.8849 33.0514 86.1349 33.2181 86.3484 33.4316C86.562 33.6452 86.7286 33.8952 86.8484 34.1816C86.9734 34.4681 87.0359 34.7728 87.0359 35.0957V40.9004H86.7156ZM86.075 37.0254H84.0437C83.851 37.0254 83.6687 37.0618 83.4969 37.1347C83.3302 37.2077 83.1844 37.3092 83.0594 37.4394C82.9344 37.5644 82.8354 37.7129 82.7625 37.8847C82.6896 38.0514 82.6531 38.2311 82.6531 38.4238V38.7597C82.6531 38.9524 82.6896 39.1347 82.7625 39.3066C82.8354 39.4733 82.9344 39.6191 83.0594 39.7441C83.1844 39.8691 83.3302 39.9681 83.4969 40.041C83.6687 40.1139 83.851 40.1504 84.0437 40.1504H84.6844C84.8771 40.1504 85.0568 40.1139 85.2234 40.041C85.3953 39.9681 85.5437 39.8691 85.6687 39.7441C85.7937 39.6191 85.8927 39.4733 85.9656 39.3066C86.0385 39.1347 86.075 38.9524 86.075 38.7597V37.0254ZM90.9094 33.8144C90.7167 33.8144 90.5344 33.8509 90.3625 33.9238C90.1958 33.9967 90.05 34.0957 89.925 34.2207C89.8 34.3457 89.701 34.4941 89.6281 34.666C89.5552 34.8327 89.5188 35.0123 89.5188 35.205V40.9004H88.5578V32.9004H88.8781L89.4016 33.7129C89.6203 33.416 89.8938 33.1816 90.2219 33.0097C90.5552 32.8327 90.9172 32.7441 91.3078 32.7441H91.8703V33.8144H90.9094ZM98.0953 38.705C98.0953 39.028 98.0328 39.3327 97.9078 39.6191C97.788 39.9056 97.6214 40.1556 97.4078 40.3691C97.1943 40.5827 96.9443 40.7519 96.6578 40.8769C96.3714 40.9967 96.0667 41.0566 95.7438 41.0566H95.1031C94.7802 41.0566 94.4755 40.9967 94.1891 40.8769C93.9026 40.7519 93.6526 40.5827 93.4391 40.3691C93.2255 40.1556 93.0563 39.9056 92.9313 39.6191C92.8115 39.3327 92.7516 39.028 92.7516 38.705V35.0957C92.7516 34.7728 92.8115 34.4681 92.9313 34.1816C93.0563 33.8952 93.2255 33.6452 93.4391 33.4316C93.6526 33.2181 93.9026 33.0514 94.1891 32.9316C94.4755 32.8066 94.7802 32.7441 95.1031 32.7441H95.7438C96.0667 32.7441 96.3714 32.8066 96.6578 32.9316C96.9443 33.0514 97.1943 33.2181 97.4078 33.4316C97.6214 33.6452 97.788 33.8952 97.9078 34.1816C98.0328 34.4681 98.0953 34.7728 98.0953 35.0957V36.9785H93.7125V38.7597C93.7125 38.9524 93.749 39.1347 93.8219 39.3066C93.8948 39.4733 93.9938 39.6191 94.1188 39.7441C94.2438 39.8691 94.3896 39.9681 94.5563 40.041C94.7281 40.1139 94.9104 40.1504 95.1031 40.1504H95.7438C95.9365 40.1504 96.1161 40.1139 96.2828 40.041C96.4547 39.9681 96.6031 39.8691 96.7281 39.7441C96.8531 39.6191 96.9521 39.4733 97.025 39.3066C97.0979 39.1347 97.1344 38.9524 97.1344 38.7597V38.2285L98.0953 38.3847V38.705ZM97.1344 35.041C97.1344 34.8483 97.0979 34.6686 97.025 34.5019C96.9521 34.33 96.8531 34.1816 96.7281 34.0566C96.6031 33.9316 96.4547 33.8327 96.2828 33.7597C96.1161 33.6868 95.9365 33.6504 95.7438 33.6504H95.1031C94.9104 33.6504 94.7281 33.6868 94.5563 33.7597C94.3896 33.8327 94.2438 33.9316 94.1188 34.0566C93.9938 34.1816 93.8948 34.33 93.8219 34.5019C93.749 34.6686 93.7125 34.8483 93.7125 35.041V36.2285H97.1344V35.041ZM104.641 40.9004L104.109 40.0879C103.891 40.3847 103.617 40.6217 103.289 40.7988C102.961 40.9707 102.602 41.0566 102.211 41.0566H101.969C101.646 41.0566 101.341 40.9967 101.055 40.8769C100.768 40.7519 100.518 40.5827 100.305 40.3691C100.091 40.1556 99.9219 39.9056 99.7969 39.6191C99.6771 39.3327 99.6172 39.028 99.6172 38.705V35.0957C99.6172 34.7728 99.6771 34.4681 99.7969 34.1816C99.9219 33.8952 100.091 33.6452 100.305 33.4316C100.518 33.2181 100.768 33.0514 101.055 32.9316C101.341 32.8066 101.646 32.7441 101.969 32.7441H102.211C102.57 32.7441 102.904 32.817 103.211 32.9629C103.518 33.1087 103.781 33.3118 104 33.5722V29.6972H104.961V40.9004H104.641ZM104 35.041C104 34.8483 103.964 34.6686 103.891 34.5019C103.818 34.33 103.719 34.1816 103.594 34.0566C103.469 33.9316 103.32 33.8327 103.148 33.7597C102.982 33.6868 102.802 33.6504 102.609 33.6504H101.969C101.776 33.6504 101.594 33.6868 101.422 33.7597C101.255 33.8327 101.109 33.9316 100.984 34.0566C100.859 34.1816 100.76 34.33 100.688 34.5019C100.615 34.6686 100.578 34.8483 100.578 35.041V38.7597C100.578 38.9524 100.615 39.1347 100.688 39.3066C100.76 39.4733 100.859 39.6191 100.984 39.7441C101.109 39.8691 101.255 39.9681 101.422 40.041C101.594 40.1139 101.776 40.1504 101.969 40.1504H102.609C102.802 40.1504 102.982 40.1139 103.148 40.041C103.32 39.9681 103.469 39.8691 103.594 39.7441C103.719 39.6191 103.818 39.4733 103.891 39.3066C103.964 39.1347 104 38.9524 104 38.7597V35.041ZM111.827 38.705C111.827 39.028 111.764 39.3327 111.639 39.6191C111.519 39.9056 111.353 40.1556 111.139 40.3691C110.926 40.5827 110.676 40.7519 110.389 40.8769C110.103 40.9967 109.798 41.0566 109.475 41.0566H108.834C108.511 41.0566 108.207 40.9967 107.92 40.8769C107.634 40.7519 107.384 40.5827 107.17 40.3691C106.957 40.1556 106.787 39.9056 106.662 39.6191C106.543 39.3327 106.483 39.028 106.483 38.705V35.0957C106.483 34.7728 106.543 34.4681 106.662 34.1816C106.787 33.8952 106.957 33.6452 107.17 33.4316C107.384 33.2181 107.634 33.0514 107.92 32.9316C108.207 32.8066 108.511 32.7441 108.834 32.7441H109.475C109.798 32.7441 110.103 32.8066 110.389 32.9316C110.676 33.0514 110.926 33.2181 111.139 33.4316C111.353 33.6452 111.519 33.8952 111.639 34.1816C111.764 34.4681 111.827 34.7728 111.827 35.0957V36.9785H107.444V38.7597C107.444 38.9524 107.48 39.1347 107.553 39.3066C107.626 39.4733 107.725 39.6191 107.85 39.7441C107.975 39.8691 108.121 39.9681 108.287 40.041C108.459 40.1139 108.642 40.1504 108.834 40.1504H109.475C109.668 40.1504 109.847 40.1139 110.014 40.041C110.186 39.9681 110.334 39.8691 110.459 39.7441C110.584 39.6191 110.683 39.4733 110.756 39.3066C110.829 39.1347 110.866 38.9524 110.866 38.7597V38.2285L111.827 38.3847V38.705ZM110.866 35.041C110.866 34.8483 110.829 34.6686 110.756 34.5019C110.683 34.33 110.584 34.1816 110.459 34.0566C110.334 33.9316 110.186 33.8327 110.014 33.7597C109.847 33.6868 109.668 33.6504 109.475 33.6504H108.834C108.642 33.6504 108.459 33.6868 108.287 33.7597C108.121 33.8327 107.975 33.9316 107.85 34.0566C107.725 34.1816 107.626 34.33 107.553 34.5019C107.48 34.6686 107.444 34.8483 107.444 35.041V36.2285H110.866V35.041Z" fill="black"/>
</g>
</g>
<g clip-path="url(#clip3_23_440)">
<g filter="url(#filter1_b_23_440)">
<path d="M11.304 23V21.72H13.592V13.64L11.448 15.256L10.664 14.184L13.976 11.8H15.032V21.72H16.936V23H11.304ZM20.4978 23V21.72H22.7858V13.64L20.6418 15.256L19.8578 14.184L23.1698 11.8H24.2258V21.72H26.1298V23H20.4978ZM29.7875 16.632C29.4995 16.632 29.2488 16.5253 29.0355 16.312C28.8222 16.0987 28.7155 15.848 28.7155 15.56C28.7155 15.2293 28.8115 14.968 29.0035 14.776C29.1955 14.584 29.4568 14.488 29.7875 14.488C30.0648 14.488 30.3102 14.5947 30.5235 14.808C30.7475 15.0213 30.8595 15.272 30.8595 15.56C30.8595 15.88 30.7582 16.1413 30.5555 16.344C30.3528 16.536 30.0968 16.632 29.7875 16.632ZM29.7875 23.192C29.4995 23.192 29.2488 23.0853 29.0355 22.872C28.8222 22.6587 28.7155 22.408 28.7155 22.12C28.7155 21.7893 28.8115 21.528 29.0035 21.336C29.1955 21.144 29.4568 21.048 29.7875 21.048C30.0648 21.048 30.3102 21.1547 30.5235 21.368C30.7475 21.5813 30.8595 21.832 30.8595 22.12C30.8595 22.44 30.7582 22.7013 30.5555 22.904C30.3528 23.096 30.0968 23.192 29.7875 23.192ZM35.9284 23.192C35.235 23.192 34.6324 23.1013 34.1204 22.92C33.6084 22.728 33.171 22.4987 32.8084 22.232L33.4644 21.032C33.763 21.256 34.1097 21.4533 34.5044 21.624C34.899 21.7947 35.379 21.88 35.9444 21.88C36.6484 21.88 37.203 21.6933 37.6084 21.32C38.0244 20.9467 38.2324 20.4827 38.2324 19.928C38.2324 19.5333 38.1257 19.176 37.9124 18.856C37.699 18.5253 37.3684 18.2587 36.9204 18.056C36.483 17.8533 35.9124 17.752 35.2084 17.752H34.3124V16.584H35.1444C35.7737 16.584 36.291 16.488 36.6964 16.296C37.1124 16.104 37.4217 15.8533 37.6244 15.544C37.827 15.2347 37.9284 14.9093 37.9284 14.568C37.9284 14.0667 37.7364 13.6613 37.3524 13.352C36.979 13.0427 36.515 12.888 35.9604 12.888C35.459 12.888 35.011 12.9733 34.6164 13.144C34.2324 13.304 33.9177 13.4853 33.6724 13.688L33.0804 12.552C33.4004 12.3387 33.811 12.1307 34.3124 11.928C34.8137 11.7147 35.4004 11.608 36.0724 11.608C36.7764 11.608 37.3737 11.736 37.8644 11.992C38.355 12.248 38.7284 12.5893 38.9844 13.016C39.251 13.432 39.3844 13.8853 39.3844 14.376C39.3844 15.0053 39.2244 15.5333 38.9044 15.96C38.595 16.3867 38.1524 16.7387 37.5764 17.016C38.2484 17.272 38.771 17.6507 39.1444 18.152C39.5284 18.6427 39.7204 19.2187 39.7204 19.88C39.7204 20.4347 39.5817 20.968 39.3044 21.48C39.0377 21.9813 38.6217 22.392 38.0564 22.712C37.5017 23.032 36.7924 23.192 35.9284 23.192ZM45.7621 23.192C44.5141 23.192 43.5648 22.6853 42.9141 21.672C42.2635 20.648 41.9381 19.2187 41.9381 17.384C41.9381 15.5387 42.2688 14.1147 42.9301 13.112C43.6021 12.1093 44.5568 11.608 45.7941 11.608C47.0421 11.608 47.9915 12.1147 48.6421 13.128C49.2928 14.1413 49.6181 15.5707 49.6181 17.416C49.6181 19.2613 49.2821 20.6853 48.6101 21.688C47.9488 22.6907 46.9995 23.192 45.7621 23.192ZM45.7781 21.88C46.2581 21.88 46.6688 21.7413 47.0101 21.464C47.3621 21.176 47.6288 20.7067 47.8101 20.056C48.0021 19.4053 48.0981 18.5307 48.0981 17.432C48.0981 15.96 47.8901 14.84 47.4741 14.072C47.0688 13.304 46.5035 12.92 45.7781 12.92C45.2981 12.92 44.8821 13.064 44.5301 13.352C44.1888 13.6293 43.9221 14.0933 43.7301 14.744C43.5488 15.384 43.4581 16.2587 43.4581 17.368C43.4581 18.84 43.6608 19.96 44.0661 20.728C44.4821 21.496 45.0528 21.88 45.7781 21.88ZM59.3079 23.16L58.0599 19.96H52.8759L51.6279 23.128L50.3319 22.6L54.7159 11.8H56.3799L60.6999 22.6L59.3079 23.16ZM53.3559 18.68H57.5639L55.4679 13.304L53.3559 18.68ZM61.8994 23V11.8H64.0274L67.1314 18.888L70.1874 11.8H72.3634V23H70.8434V13.736L67.8514 20.472H66.3474L63.3394 13.736V23H61.8994ZM75.4831 18.168V16.856H80.9231V18.168H75.4831ZM84.9009 23V21.72H87.1889V13.64L85.0449 15.256L84.2609 14.184L87.5729 11.8H88.6289V21.72H90.5329V23H84.9009ZM93.1986 23C93.1666 22.808 93.1506 22.6107 93.1506 22.408C93.1506 21.7147 93.268 21.096 93.5026 20.552C93.748 19.9973 94.0626 19.496 94.4466 19.048C94.8306 18.5893 95.236 18.168 95.6626 17.784C96.1 17.3893 96.5053 17.016 96.8786 16.664C97.2626 16.3013 97.5773 15.9387 97.8226 15.576C98.068 15.2133 98.1906 14.8347 98.1906 14.44C98.1906 13.992 98.0253 13.624 97.6946 13.336C97.364 13.0373 96.9373 12.888 96.4146 12.888C95.9666 12.888 95.556 12.9787 95.1826 13.16C94.82 13.3307 94.4786 13.5653 94.1586 13.864L93.3586 12.888C93.7853 12.504 94.2546 12.1947 94.7666 11.96C95.2893 11.7253 95.892 11.608 96.5746 11.608C97.204 11.608 97.7533 11.7307 98.2226 11.976C98.692 12.2107 99.0546 12.536 99.3106 12.952C99.5773 13.368 99.7106 13.832 99.7106 14.344C99.7106 14.856 99.5986 15.3307 99.3746 15.768C99.1506 16.2053 98.8626 16.616 98.5106 17C98.1586 17.384 97.78 17.7573 97.3746 18.12C96.9693 18.472 96.58 18.8347 96.2066 19.208C95.8333 19.5813 95.5133 19.9707 95.2466 20.376C94.9906 20.7813 94.8306 21.2187 94.7666 21.688H99.6946V23H93.1986ZM103.384 16.632C103.096 16.632 102.846 16.5253 102.632 16.312C102.419 16.0987 102.312 15.848 102.312 15.56C102.312 15.2293 102.408 14.968 102.6 14.776C102.792 14.584 103.054 14.488 103.384 14.488C103.662 14.488 103.907 14.5947 104.12 14.808C104.344 15.0213 104.456 15.272 104.456 15.56C104.456 15.88 104.355 16.1413 104.152 16.344C103.95 16.536 103.694 16.632 103.384 16.632ZM103.384 23.192C103.096 23.192 102.846 23.0853 102.632 22.872C102.419 22.6587 102.312 22.408 102.312 22.12C102.312 21.7893 102.408 21.528 102.6 21.336C102.792 21.144 103.054 21.048 103.384 21.048C103.662 21.048 103.907 21.1547 104.12 21.368C104.344 21.5813 104.456 21.832 104.456 22.12C104.456 22.44 104.355 22.7013 104.152 22.904C103.95 23.096 103.694 23.192 103.384 23.192ZM109.525 23.192C108.832 23.192 108.229 23.1013 107.717 22.92C107.205 22.728 106.768 22.4987 106.405 22.232L107.061 21.032C107.36 21.256 107.707 21.4533 108.101 21.624C108.496 21.7947 108.976 21.88 109.541 21.88C110.245 21.88 110.8 21.6933 111.205 21.32C111.621 20.9467 111.829 20.4827 111.829 19.928C111.829 19.5333 111.723 19.176 111.509 18.856C111.296 18.5253 110.965 18.2587 110.517 18.056C110.08 17.8533 109.509 17.752 108.805 17.752H107.909V16.584H108.741C109.371 16.584 109.888 16.488 110.293 16.296C110.709 16.104 111.019 15.8533 111.221 15.544C111.424 15.2347 111.525 14.9093 111.525 14.568C111.525 14.0667 111.333 13.6613 110.949 13.352C110.576 13.0427 110.112 12.888 109.557 12.888C109.056 12.888 108.608 12.9733 108.213 13.144C107.829 13.304 107.515 13.4853 107.269 13.688L106.677 12.552C106.997 12.3387 107.408 12.1307 107.909 11.928C108.411 11.7147 108.997 11.608 109.669 11.608C110.373 11.608 110.971 11.736 111.461 11.992C111.952 12.248 112.325 12.5893 112.581 13.016C112.848 13.432 112.981 13.8853 112.981 14.376C112.981 15.0053 112.821 15.5333 112.501 15.96C112.192 16.3867 111.749 16.7387 111.173 17.016C111.845 17.272 112.368 17.6507 112.741 18.152C113.125 18.6427 113.317 19.2187 113.317 19.88C113.317 20.4347 113.179 20.968 112.901 21.48C112.635 21.9813 112.219 22.392 111.653 22.712C111.099 23.032 110.389 23.192 109.525 23.192ZM119.359 23.192C118.111 23.192 117.162 22.6853 116.511 21.672C115.86 20.648 115.535 19.2187 115.535 17.384C115.535 15.5387 115.866 14.1147 116.527 13.112C117.199 12.1093 118.154 11.608 119.391 11.608C120.639 11.608 121.588 12.1147 122.239 13.128C122.89 14.1413 123.215 15.5707 123.215 17.416C123.215 19.2613 122.879 20.6853 122.207 21.688C121.546 22.6907 120.596 23.192 119.359 23.192ZM119.375 21.88C119.855 21.88 120.266 21.7413 120.607 21.464C120.959 21.176 121.226 20.7067 121.407 20.056C121.599 19.4053 121.695 18.5307 121.695 17.432C121.695 15.96 121.487 14.84 121.071 14.072C120.666 13.304 120.1 12.92 119.375 12.92C118.895 12.92 118.479 13.064 118.127 13.352C117.786 13.6293 117.519 14.0933 117.327 14.744C117.146 15.384 117.055 16.2587 117.055 17.368C117.055 18.84 117.258 19.96 117.663 20.728C118.079 21.496 118.65 21.88 119.375 21.88ZM125.209 23V11.832C125.646 11.7787 126.126 11.7413 126.649 11.72C127.182 11.688 127.731 11.672 128.297 11.672C129.225 11.672 130.014 11.8213 130.665 12.12C131.315 12.408 131.811 12.808 132.153 13.32C132.494 13.832 132.665 14.4187 132.665 15.08C132.665 15.88 132.467 16.5573 132.073 17.112C131.678 17.6667 131.129 18.0933 130.425 18.392C129.721 18.68 128.905 18.824 127.977 18.824C127.529 18.824 127.113 18.808 126.729 18.776V23H125.209ZM128.169 17.56C129.118 17.56 129.854 17.3467 130.377 16.92C130.899 16.4933 131.161 15.9227 131.161 15.208C131.161 14.5147 130.91 13.9653 130.409 13.56C129.907 13.1547 129.193 12.952 128.265 12.952C127.977 12.952 127.705 12.9573 127.449 12.968C127.193 12.9787 126.953 12.9947 126.729 13.016V17.48C126.899 17.5013 127.107 17.5227 127.353 17.544C127.598 17.5547 127.87 17.56 128.169 17.56ZM134.106 23V11.8H136.234L139.338 18.888L142.394 11.8H144.57V23H143.05V13.736L140.058 20.472H138.554L135.546 13.736V23H134.106Z" fill="black"/>
</g>
</g>
</g>
</g>
<defs>
<filter id="filter0_b_23_440" x="-29.7188" y="-10.3028" width="181.545" height="94.4062" filterUnits="userSpaceOnUse" color-interpolation-filters="sRGB">
<feFlood flood-opacity="0" result="BackgroundImageFix"/>
<feGaussianBlur in="BackgroundImageFix" stdDeviation="20"/>
<feComposite in2="SourceAlpha" operator="in" result="effect1_backgroundBlur_23_440"/>
<feBlend mode="normal" in="SourceGraphic" in2="effect1_backgroundBlur_23_440" result="shape"/>
</filter>
<filter id="filter1_b_23_440" x="-29.336" y="-28.392" width="213.906" height="91.584" filterUnits="userSpaceOnUse" color-interpolation-filters="sRGB">
<feFlood flood-opacity="0" result="BackgroundImageFix"/>
<feGaussianBlur in="BackgroundImageFix" stdDeviation="20"/>
<feComposite in2="SourceAlpha" operator="in" result="effect1_backgroundBlur_23_440"/>
<feBlend mode="normal" in="SourceGraphic" in2="effect1_backgroundBlur_23_440" result="shape"/>
</filter>
<clipPath id="clip0_23_440">
<rect width="162" height="72" fill="white"/>
</clipPath>
<clipPath id="clip1_23_440">
<rect width="148" height="55.8007" fill="white" transform="translate(9 7)"/>
</clipPath>
<clipPath id="clip2_23_440">
<rect width="148" height="21" fill="white" transform="translate(9 24.9004)"/>
</clipPath>
<clipPath id="clip3_23_440">
<rect width="148" height="21" fill="white" transform="translate(9 7)"/>
</clipPath>
</defs>
</svg>
