<svg width="72" height="72" viewBox="0 0 72 72" fill="none" xmlns="http://www.w3.org/2000/svg">
<g filter="url(#filter0_b_23_424)">
<g filter="url(#filter1_b_23_424)">
<path fill-rule="evenodd" clip-rule="evenodd" d="M10.9777 49.9748C8.44967 45.6715 7 40.6584 7 35.3066C7 19.2904 19.9837 6.30661 36 6.30661C39.8031 6.30661 43.4352 7.03869 46.7631 8.3696C46.0004 8.78316 45.3387 9.40592 44.873 10.2124C44.2775 11.2439 44.1026 12.4029 44.2952 13.4906C41.7181 12.5104 38.9224 11.9736 36.0013 11.9736C23.1147 11.9736 12.668 22.4203 12.668 35.3069C12.668 39.4942 13.771 43.4239 15.7022 46.8213C15.7351 46.8708 15.7665 46.9216 15.7966 46.9737C16.5795 48.3296 16.1149 50.0635 14.7589 50.8463C13.4581 51.5974 11.8096 51.2004 10.9864 49.9697L10.9777 49.9748ZM50.7432 17.2195C55.9866 21.4982 59.3346 28.0116 59.3346 35.3069C59.3346 39.5002 58.2285 43.4352 56.2921 46.8359C56.2627 46.8807 56.2344 46.9267 56.2073 46.9737C55.4244 48.3296 55.889 50.0635 57.245 50.8463C58.5452 51.597 60.1929 51.2007 61.0164 49.9714L61.0223 49.9748C63.5503 45.6715 65 40.6584 65 35.3066C65 26.0686 60.6804 17.8394 53.9509 12.5287C53.9724 13.393 53.7637 14.274 53.2998 15.0776C52.703 16.1113 51.7842 16.8431 50.7432 17.2195Z" fill="#0D0D0D" fill-opacity="0.5"/>
<path fill-rule="evenodd" clip-rule="evenodd" d="M10.9777 49.9748C8.44967 45.6715 7 40.6584 7 35.3066C7 19.2904 19.9837 6.30661 36 6.30661C39.8031 6.30661 43.4352 7.03869 46.7631 8.3696C46.0004 8.78316 45.3387 9.40592 44.873 10.2124C44.2775 11.2439 44.1026 12.4029 44.2952 13.4906C41.7181 12.5104 38.9224 11.9736 36.0013 11.9736C23.1147 11.9736 12.668 22.4203 12.668 35.3069C12.668 39.4942 13.771 43.4239 15.7022 46.8213C15.7351 46.8708 15.7665 46.9216 15.7966 46.9737C16.5795 48.3296 16.1149 50.0635 14.7589 50.8463C13.4581 51.5974 11.8096 51.2004 10.9864 49.9697L10.9777 49.9748ZM50.7432 17.2195C55.9866 21.4982 59.3346 28.0116 59.3346 35.3069C59.3346 39.5002 58.2285 43.4352 56.2921 46.8359C56.2627 46.8807 56.2344 46.9267 56.2073 46.9737C55.4244 48.3296 55.889 50.0635 57.245 50.8463C58.5452 51.597 60.1929 51.2007 61.0164 49.9714L61.0223 49.9748C63.5503 45.6715 65 40.6584 65 35.3066C65 26.0686 60.6804 17.8394 53.9509 12.5287C53.9724 13.393 53.7637 14.274 53.2998 15.0776C52.703 16.1113 51.7842 16.8431 50.7432 17.2195Z" fill="#8C8C8C" style="mix-blend-mode:color-dodge"/>
</g>
<circle cx="2.835" cy="2.835" r="2.835" transform="matrix(0.5 -0.866025 -0.866025 -0.5 50.125 16.5175)" fill="black"/>
<path d="M26.0566 61.5L29.1094 53.0449H30.1699V54.5273H29.7715L27.4395 61.5H26.0566ZM27.5273 59.2148L27.8965 58.1601H31.7461L32.1152 59.2148H27.5273ZM32.1973 61.5L29.8711 54.5273V53.0449H30.5332L33.5801 61.5H32.1973ZM38.2559 61.705C37.4355 61.705 36.7305 61.5254 36.1406 61.166C35.5508 60.8027 35.0977 60.289 34.7812 59.625C34.4648 58.9609 34.3066 58.1777 34.3066 57.2754V57.2636C34.3066 56.3535 34.4668 55.5683 34.7871 54.9082C35.1074 54.248 35.5625 53.7383 36.1523 53.3789C36.7461 53.0195 37.4473 52.8398 38.2559 52.8398C39.0684 52.8398 39.7695 53.0195 40.3594 53.3789C40.9492 53.7383 41.4023 54.25 41.7188 54.914C42.0391 55.5742 42.1992 56.3574 42.1992 57.2636V57.2754C42.1992 58.1777 42.041 58.9609 41.7246 59.625C41.4082 60.2851 40.9531 60.7968 40.3594 61.1601C39.7695 61.5234 39.0684 61.705 38.2559 61.705ZM38.2559 60.539C38.7871 60.539 39.248 60.4043 39.6387 60.1347C40.0293 59.8652 40.3301 59.4863 40.541 58.998C40.752 58.5058 40.8574 57.9316 40.8574 57.2754V57.2636C40.8574 56.5996 40.752 56.0234 40.541 55.5351C40.3301 55.0468 40.0293 54.6699 39.6387 54.4043C39.248 54.1386 38.7871 54.0058 38.2559 54.0058C37.7246 54.0058 37.2637 54.1386 36.873 54.4043C36.4863 54.6699 36.1855 55.0468 35.9707 55.5351C35.7559 56.0234 35.6484 56.5996 35.6484 57.2636V57.2754C35.6484 57.9316 35.752 58.5058 35.959 58.998C36.1699 59.4863 36.4688 59.8652 36.8555 60.1347C37.2461 60.4043 37.7129 60.539 38.2559 60.539ZM40.4941 62.414L37.9453 58.9453H39.2988L41.8477 62.414H40.4941ZM43.9805 61.5V53.0449H45.293V61.5H43.9805Z" fill="black"/>
<path d="M23.8672 42V40.1577L29.9084 34.0686C30.6741 33.295 31.2563 32.653 31.655 32.1425C32.0618 31.6321 32.3409 31.1775 32.4924 30.7788C32.6519 30.372 32.7317 29.9454 32.7317 29.4987V29.4748C32.7317 28.9245 32.6041 28.438 32.3489 28.0154C32.0937 27.5847 31.7388 27.2497 31.2842 27.0105C30.8376 26.7712 30.3152 26.6516 29.717 26.6516C29.0551 26.6516 28.4649 26.7872 27.9465 27.0583C27.4281 27.3295 27.0214 27.7003 26.7263 28.1709C26.4312 28.6414 26.2837 29.1718 26.2837 29.7619L26.2717 29.8337H23.7356L23.7236 29.7619C23.7316 28.7251 23.9948 27.808 24.5132 27.0105C25.0396 26.205 25.7573 25.5749 26.6665 25.1203C27.5757 24.6578 28.5925 24.4265 29.717 24.4265C30.8256 24.4265 31.8026 24.6378 32.6479 25.0605C33.5013 25.4832 34.1712 26.0654 34.6577 26.8071C35.1442 27.5408 35.3875 28.3742 35.3875 29.3073V29.3313C35.3875 29.9852 35.2678 30.6113 35.0286 31.2094C34.7893 31.8076 34.3786 32.4655 33.7964 33.1833C33.2142 33.8931 32.4047 34.7584 31.3679 35.7793L26.6067 40.4687L27.48 38.8178V40.4687L26.6187 39.727H35.6626V42H23.8672ZM38.1558 42L45.812 27.0822V26.9985H36.7083V24.7375H48.4797V27.0703L40.967 42H38.1558Z" fill="black"/>
</g>
<defs>
<filter id="filter0_b_23_424" x="-40" y="-40" width="152" height="152" filterUnits="userSpaceOnUse" color-interpolation-filters="sRGB">
<feFlood flood-opacity="0" result="BackgroundImageFix"/>
<feGaussianBlur in="BackgroundImageFix" stdDeviation="20"/>
<feComposite in2="SourceAlpha" operator="in" result="effect1_backgroundBlur_23_424"/>
<feBlend mode="normal" in="SourceGraphic" in2="effect1_backgroundBlur_23_424" result="shape"/>
</filter>
<filter id="filter1_b_23_424" x="-43" y="-43.6934" width="158" height="144.92" filterUnits="userSpaceOnUse" color-interpolation-filters="sRGB">
<feFlood flood-opacity="0" result="BackgroundImageFix"/>
<feGaussianBlur in="BackgroundImageFix" stdDeviation="25"/>
<feComposite in2="SourceAlpha" operator="in" result="effect1_backgroundBlur_23_424"/>
<feBlend mode="normal" in="SourceGraphic" in2="effect1_backgroundBlur_23_424" result="shape"/>
</filter>
</defs>
</svg>
