<svg width="72" height="72" viewBox="0 0 72 72" fill="none" xmlns="http://www.w3.org/2000/svg">
<g filter="url(#filter0_b_23_408)">
<g filter="url(#filter1_b_23_408)">
<path fill-rule="evenodd" clip-rule="evenodd" d="M10.9777 51.9749C8.44967 47.6715 7 42.6584 7 37.3066C7 21.2904 19.9837 8.30664 36 8.30664C39.8031 8.30664 43.4352 9.03872 46.7631 10.3696C46.0004 10.7832 45.3387 11.4059 44.873 12.2125C44.2775 13.244 44.1026 14.4029 44.2952 15.4907C41.7181 14.5104 38.9224 13.9736 36.0013 13.9736C23.1147 13.9736 12.668 24.4203 12.668 37.307C12.668 41.4943 13.771 45.424 15.7022 48.8214C15.7351 48.8708 15.7665 48.9216 15.7966 48.9737C16.5795 50.3297 16.1149 52.0635 14.7589 52.8464C13.4581 53.5974 11.8096 53.2004 10.9864 51.9698L10.9777 51.9749ZM50.7432 19.2196C55.9866 23.4983 59.3346 30.0116 59.3346 37.307C59.3346 41.5002 58.2285 45.4352 56.2921 48.8359C56.2627 48.8807 56.2344 48.9267 56.2073 48.9737C55.4244 50.3297 55.889 52.0635 57.245 52.8464C58.5452 53.5971 60.1929 53.2008 61.0164 51.9714L61.0223 51.9749C63.5503 47.6715 65 42.6584 65 37.3066C65 28.0686 60.6804 19.8394 53.9509 14.5287C53.9724 15.3931 53.7637 16.274 53.2998 17.0776C52.703 18.1113 51.7842 18.8431 50.7432 19.2196Z" fill="#0D0D0D" fill-opacity="0.5"/>
<path fill-rule="evenodd" clip-rule="evenodd" d="M10.9777 51.9749C8.44967 47.6715 7 42.6584 7 37.3066C7 21.2904 19.9837 8.30664 36 8.30664C39.8031 8.30664 43.4352 9.03872 46.7631 10.3696C46.0004 10.7832 45.3387 11.4059 44.873 12.2125C44.2775 13.244 44.1026 14.4029 44.2952 15.4907C41.7181 14.5104 38.9224 13.9736 36.0013 13.9736C23.1147 13.9736 12.668 24.4203 12.668 37.307C12.668 41.4943 13.771 45.424 15.7022 48.8214C15.7351 48.8708 15.7665 48.9216 15.7966 48.9737C16.5795 50.3297 16.1149 52.0635 14.7589 52.8464C13.4581 53.5974 11.8096 53.2004 10.9864 51.9698L10.9777 51.9749ZM50.7432 19.2196C55.9866 23.4983 59.3346 30.0116 59.3346 37.307C59.3346 41.5002 58.2285 45.4352 56.2921 48.8359C56.2627 48.8807 56.2344 48.9267 56.2073 48.9737C55.4244 50.3297 55.889 52.0635 57.245 52.8464C58.5452 53.5971 60.1929 53.2008 61.0164 51.9714L61.0223 51.9749C63.5503 47.6715 65 42.6584 65 37.3066C65 28.0686 60.6804 19.8394 53.9509 14.5287C53.9724 15.3931 53.7637 16.274 53.2998 17.0776C52.703 18.1113 51.7842 18.8431 50.7432 19.2196Z" fill="#8C8C8C" style="mix-blend-mode:color-dodge"/>
</g>
<circle cx="2.835" cy="2.835" r="2.835" transform="matrix(0.5 -0.866025 -0.866025 -0.5 50.125 18.5176)" fill="black"/>
<path d="M40.9141 62.6934L44.3301 56.0439V55.9634H40.2695V54.9429H45.5493V55.9902L42.1816 62.6934H40.9141ZM49.626 62.8384C49.0495 62.8384 48.541 62.7435 48.1006 62.5537C47.6602 62.3639 47.3146 62.1007 47.064 61.7642C46.8133 61.424 46.688 61.0355 46.688 60.5986V60.5879C46.688 60.262 46.7596 59.9631 46.9028 59.6909C47.0496 59.4188 47.252 59.1896 47.5098 59.0034C47.7712 58.8136 48.0701 58.6829 48.4067 58.6113V58.5845C47.9735 58.4591 47.6243 58.2443 47.3594 57.9399C47.098 57.6356 46.9673 57.2775 46.9673 56.8657V56.855C46.9673 56.4575 47.0801 56.1048 47.3057 55.7969C47.5348 55.4889 47.8499 55.2454 48.251 55.0664C48.652 54.8874 49.1104 54.7979 49.626 54.7979C50.1416 54.7979 50.5981 54.8874 50.9956 55.0664C51.3966 55.2454 51.71 55.4889 51.9355 55.7969C52.1647 56.1048 52.2793 56.4575 52.2793 56.855V56.8657C52.2793 57.2775 52.1486 57.6356 51.8872 57.9399C51.6258 58.2443 51.2785 58.4591 50.8452 58.5845V58.6113C51.1854 58.6829 51.4826 58.8136 51.7368 59.0034C51.9946 59.1896 52.1951 59.4188 52.3384 59.6909C52.4852 59.9631 52.5586 60.262 52.5586 60.5879V60.5986C52.5586 61.0355 52.4333 61.424 52.1826 61.7642C51.9355 62.1007 51.59 62.3639 51.146 62.5537C50.7056 62.7435 50.1989 62.8384 49.626 62.8384ZM49.626 61.8716C49.9554 61.8716 50.2472 61.8143 50.5015 61.6997C50.7557 61.5815 50.9544 61.4222 51.0977 61.2217C51.2445 61.0176 51.3179 60.7848 51.3179 60.5234V60.5127C51.3179 60.2477 51.2463 60.0132 51.103 59.8091C50.9598 59.6014 50.7593 59.4403 50.5015 59.3257C50.2472 59.2075 49.9554 59.1484 49.626 59.1484C49.293 59.1484 48.9993 59.2075 48.7451 59.3257C48.4909 59.4403 48.2922 59.6014 48.1489 59.8091C48.0057 60.0132 47.9341 60.2477 47.9341 60.5127V60.5234C47.9341 60.7848 48.0057 61.0176 48.1489 61.2217C48.2957 61.4222 48.4963 61.5815 48.7505 61.6997C49.0047 61.8143 49.2965 61.8716 49.626 61.8716ZM49.626 58.1763C49.9124 58.1763 50.1649 58.1261 50.3833 58.0259C50.6053 57.922 50.7772 57.7788 50.8989 57.5962C51.0207 57.4136 51.0815 57.2059 51.0815 56.9731V56.9624C51.0815 56.7261 51.0189 56.5166 50.8936 56.334C50.7718 56.1514 50.6017 56.0099 50.3833 55.9097C50.1649 55.8058 49.9124 55.7539 49.626 55.7539C49.3395 55.7539 49.0853 55.8058 48.8633 55.9097C48.6449 56.0099 48.473 56.1514 48.3477 56.334C48.2259 56.5166 48.165 56.7261 48.165 56.9624V56.9731C48.165 57.2059 48.2259 57.4136 48.3477 57.5962C48.473 57.7788 48.6449 57.922 48.8633 58.0259C49.0817 58.1261 49.3359 58.1763 49.626 58.1763Z" fill="black"/>
<path d="M21.4551 62.8813C20.9502 62.8813 20.5026 62.7847 20.1123 62.5913C19.722 62.3979 19.4105 62.1348 19.1777 61.8018C18.945 61.4652 18.8089 61.0892 18.7695 60.6738L18.7642 60.604H19.8975L19.9028 60.647C19.9386 60.8726 20.0246 61.0785 20.1606 61.2646C20.3003 61.4508 20.4829 61.5977 20.7085 61.7051C20.9341 61.8125 21.1865 61.8662 21.4658 61.8662C21.7845 61.8662 22.0656 61.7964 22.3091 61.6567C22.5526 61.5135 22.7424 61.3184 22.8784 61.0713C23.0181 60.8242 23.0879 60.5396 23.0879 60.2173V60.2065C23.0879 59.8879 23.0181 59.605 22.8784 59.3579C22.7388 59.1108 22.549 58.9193 22.3091 58.7832C22.0692 58.6436 21.7917 58.5737 21.4766 58.5737C21.2438 58.5737 21.0272 58.6095 20.8267 58.6812C20.6297 58.7492 20.4543 58.853 20.3003 58.9927C20.2323 59.0571 20.1678 59.127 20.1069 59.2021C20.0461 59.2738 19.9924 59.3543 19.9458 59.4438H18.9038L19.2905 54.9429H23.8022V55.9634H20.2412L20.0049 58.4341H20.0908C20.2018 58.2586 20.3397 58.11 20.5044 57.9883C20.6727 57.8665 20.8625 57.7734 21.0737 57.709C21.285 57.6445 21.5088 57.6123 21.7451 57.6123C22.2321 57.6123 22.6618 57.7233 23.0342 57.9453C23.4102 58.1673 23.7056 58.4717 23.9204 58.8584C24.1353 59.2451 24.2427 59.6873 24.2427 60.1851V60.1958C24.2427 60.7222 24.1227 61.1877 23.8828 61.5923C23.6465 61.9969 23.3188 62.3138 22.8999 62.543C22.4845 62.7686 22.0029 62.8813 21.4551 62.8813ZM28.4858 62.8813C27.8879 62.8813 27.3758 62.7166 26.9497 62.3872C26.5236 62.0578 26.196 61.5905 25.9668 60.9854C25.7376 60.3766 25.623 59.6551 25.623 58.8208V58.8101C25.623 57.9757 25.7376 57.256 25.9668 56.6509C26.196 56.0457 26.5236 55.5785 26.9497 55.249C27.3758 54.9196 27.8879 54.7549 28.4858 54.7549C29.0838 54.7549 29.5959 54.9196 30.022 55.249C30.4481 55.5785 30.7757 56.0457 31.0049 56.6509C31.2376 57.256 31.354 57.9757 31.354 58.8101V58.8208C31.354 59.6551 31.2376 60.3766 31.0049 60.9854C30.7757 61.5905 30.4481 62.0578 30.022 62.3872C29.5959 62.7166 29.0838 62.8813 28.4858 62.8813ZM28.4858 61.877C28.8332 61.877 29.1286 61.7534 29.3721 61.5063C29.6191 61.2593 29.8071 60.9084 29.936 60.4536C30.0685 59.9953 30.1348 59.451 30.1348 58.8208V58.8101C30.1348 58.1799 30.0685 57.6374 29.936 57.1826C29.8071 56.7279 29.6191 56.3787 29.3721 56.1353C29.1286 55.8882 28.8332 55.7646 28.4858 55.7646C28.1421 55.7646 27.8467 55.8882 27.5996 56.1353C27.3561 56.3787 27.1681 56.7279 27.0356 57.1826C26.9067 57.6374 26.8423 58.1799 26.8423 58.8101V58.8208C26.8423 59.451 26.9067 59.9953 27.0356 60.4536C27.1681 60.9084 27.3561 61.2593 27.5996 61.5063C27.8467 61.7534 28.1421 61.877 28.4858 61.877Z" fill="black"/>
<path d="M28.9023 44.2783C28.0352 44.2783 27.2031 44.1221 26.4062 43.8096C25.6172 43.4893 24.9102 42.9893 24.2852 42.3096C23.6602 41.6299 23.1641 40.7549 22.7969 39.6846C22.4375 38.6064 22.2578 37.3018 22.2578 35.7705V35.7471C22.2578 33.8643 22.5234 32.251 23.0547 30.9072C23.5938 29.5635 24.3672 28.5361 25.375 27.8252C26.3828 27.1143 27.5898 26.7588 28.9961 26.7588C30.0039 26.7588 30.9102 26.9385 31.7148 27.2979C32.5273 27.6572 33.1992 28.1572 33.7305 28.7979C34.2695 29.4385 34.6289 30.1768 34.8086 31.0127L34.8438 31.1533H32.207L32.1602 31.0361C32.0039 30.6143 31.7773 30.251 31.4805 29.9463C31.1914 29.6338 30.8359 29.3955 30.4141 29.2314C29.9922 29.0596 29.5156 28.9736 28.9844 28.9736C28.0234 28.9736 27.2383 29.2549 26.6289 29.8174C26.0273 30.3721 25.5781 31.1143 25.2812 32.0439C24.9922 32.9736 24.8281 33.9971 24.7891 35.1143C24.7812 35.208 24.7773 35.3018 24.7773 35.3955C24.7773 35.4893 24.7773 35.583 24.7773 35.6768L25.293 38.4775C25.293 39.1416 25.4492 39.7471 25.7617 40.2939C26.082 40.833 26.5117 41.2627 27.0508 41.583C27.5977 41.9033 28.2031 42.0635 28.8672 42.0635C29.5312 42.0635 30.1328 41.9072 30.6719 41.5947C31.2188 41.2822 31.6523 40.8604 31.9727 40.3291C32.293 39.79 32.4531 39.1924 32.4531 38.5361V38.5127C32.4531 37.833 32.2969 37.2275 31.9844 36.6963C31.6797 36.165 31.2617 35.751 30.7305 35.4541C30.1992 35.1572 29.5898 35.0088 28.9023 35.0088C28.2227 35.0088 27.6094 35.1572 27.0625 35.4541C26.5156 35.751 26.082 36.1611 25.7617 36.6846C25.4492 37.2002 25.293 37.79 25.293 38.4541V38.4775H24.5898V35.5713H24.8711C25.0898 35.0713 25.418 34.6182 25.8555 34.2119C26.293 33.8057 26.8164 33.4814 27.4258 33.2393C28.043 32.9971 28.7344 32.876 29.5 32.876C30.5859 32.876 31.5469 33.1182 32.3828 33.6025C33.2188 34.0791 33.875 34.7393 34.3516 35.583C34.8281 36.4189 35.0664 37.3721 35.0664 38.4424V38.4658C35.0664 39.5908 34.7969 40.5908 34.2578 41.4658C33.7266 42.3408 32.9961 43.0283 32.0664 43.5283C31.1445 44.0283 30.0898 44.2783 28.9023 44.2783ZM38.6758 43.9736L46.1758 29.3604V29.2783H37.2695V27.0635H48.7891V29.3486L41.4414 43.9736H38.6758Z" fill="black"/>
</g>
<defs>
<filter id="filter0_b_23_408" x="-40" y="-40" width="152" height="152" filterUnits="userSpaceOnUse" color-interpolation-filters="sRGB">
<feFlood flood-opacity="0" result="BackgroundImageFix"/>
<feGaussianBlur in="BackgroundImageFix" stdDeviation="20"/>
<feComposite in2="SourceAlpha" operator="in" result="effect1_backgroundBlur_23_408"/>
<feBlend mode="normal" in="SourceGraphic" in2="effect1_backgroundBlur_23_408" result="shape"/>
</filter>
<filter id="filter1_b_23_408" x="-43" y="-41.6934" width="158" height="144.92" filterUnits="userSpaceOnUse" color-interpolation-filters="sRGB">
<feFlood flood-opacity="0" result="BackgroundImageFix"/>
<feGaussianBlur in="BackgroundImageFix" stdDeviation="25"/>
<feComposite in2="SourceAlpha" operator="in" result="effect1_backgroundBlur_23_408"/>
<feBlend mode="normal" in="SourceGraphic" in2="effect1_backgroundBlur_23_408" result="shape"/>
</filter>
</defs>
</svg>
